<svg width="35" height="35" viewBox="0 0 35 35" fill="none" xmlns="http://www.w3.org/2000/svg">
<path d="M29.8047 0H8.27148C6.00988 0 4.16992 1.83996 4.16992 4.10156V30.8984C4.16992 33.16 6.00988 35 8.27148 35H29.8047C30.371 35 30.8301 34.5409 30.8301 33.9746V1.02539C30.8301 0.459102 30.371 0 29.8047 0ZM6.2207 4.10156C6.2207 2.97076 7.14068 2.05078 8.27148 2.05078V26.7969C7.525 26.7969 6.82432 26.9974 6.2207 27.3473V4.10156ZM28.7793 32.9492H8.27148C7.14068 32.9492 6.2207 32.0292 6.2207 30.8984C6.2207 29.7676 7.14068 28.8477 8.27148 28.8477H28.7793V32.9492ZM28.7793 26.7969H10.3223V2.05078H28.7793V26.7969Z" fill="#181818"/>
<path d="M14.1256 13.2282C13.0342 14.6675 12.373 16.5441 12.373 18.5938C12.373 20.7892 13.1253 22.4337 14.6089 23.4814C15.8141 24.3324 17.4305 24.7461 19.5508 24.7461C21.671 24.7461 23.2875 24.3324 24.4926 23.4814C25.9763 22.4337 26.7285 20.7892 26.7285 18.5938C26.7285 16.5441 26.0673 14.6675 24.9759 13.2282C26.0786 12.2691 26.7285 10.8756 26.7285 9.36523V5.26367C26.7285 4.69738 26.2694 4.23828 25.7031 4.23828C25.1368 4.23828 24.6777 4.69738 24.6777 5.26367V6.28906H23.6523C23.0869 6.28906 22.627 5.82907 22.627 5.26367C22.627 4.69738 22.1679 4.23828 21.6016 4.23828C21.0353 4.23828 20.5762 4.69738 20.5762 5.26367C20.5762 6.95987 21.9561 8.33984 23.6523 8.33984H24.6777V9.36523C24.6777 10.3163 24.2484 11.1904 23.5259 11.767C22.3871 10.898 21.0199 10.3906 19.5508 10.3906C18.0817 10.3906 16.7144 10.898 15.5756 11.767C14.8531 11.1904 14.4238 10.3163 14.4238 9.36523V8.33984H15.4492C17.1454 8.33984 18.5254 6.95987 18.5254 5.26367C18.5254 4.69738 18.0663 4.23828 17.5 4.23828C16.9337 4.23828 16.4746 4.69738 16.4746 5.26367C16.4746 5.82907 16.0146 6.28906 15.4492 6.28906H14.4238V5.26367C14.4238 4.69738 13.9647 4.23828 13.3984 4.23828C12.8321 4.23828 12.373 4.69738 12.373 5.26367V9.36523C12.373 10.8756 13.0229 12.2691 14.1256 13.2282ZM22.7099 13.7513C22.7242 13.7659 22.7387 13.78 22.7538 13.7936C23.9258 14.922 24.6777 16.6544 24.6777 18.5938C24.6777 20.3491 24.185 22.3427 20.5762 22.6535V20.6445H21.6016C22.1679 20.6445 22.627 20.1854 22.627 19.6191C22.627 19.0529 22.1679 18.5938 21.6016 18.5938H17.5C16.9337 18.5938 16.4746 19.0529 16.4746 19.6191C16.4746 20.1854 16.9337 20.6445 17.5 20.6445H18.5254V22.6535C14.9166 22.3427 14.4238 20.3491 14.4238 18.5938C14.4238 16.6543 15.1757 14.922 16.3479 13.7935C16.3629 13.78 16.3775 13.7658 16.3917 13.7513C17.2629 12.9311 18.3601 12.4414 19.5508 12.4414C20.7415 12.4414 21.8386 12.9311 22.7099 13.7513Z" fill="#1C2B58"/>
<path d="M17.5 16.543C18.0663 16.543 18.5254 16.0839 18.5254 15.5176C18.5254 14.9513 18.0663 14.4922 17.5 14.4922C16.9337 14.4922 16.4746 14.9513 16.4746 15.5176C16.4746 16.0839 16.9337 16.543 17.5 16.543Z" fill="#1C2B58"/>
<path d="M21.6016 16.543C22.1679 16.543 22.627 16.0839 22.627 15.5176C22.627 14.9513 22.1679 14.4922 21.6016 14.4922C21.0353 14.4922 20.5762 14.9513 20.5762 15.5176C20.5762 16.0839 21.0353 16.543 21.6016 16.543Z" fill="#1C2B58"/>
</svg>
