<svg width="50" height="50" viewBox="0 0 50 50" fill="none" xmlns="http://www.w3.org/2000/svg">
<path d="M49.5745 41.2881L42.965 34.6328C45.569 30.9543 46.9727 26.5714 46.9727 21.9726C46.9727 9.82908 37.1454 0 25.0001 0C12.8566 0 3.02747 9.82732 3.02747 21.9726C3.02747 26.5617 4.42493 30.9358 7.01819 34.6094L0.422497 41.2912C0.044177 41.6745 -0.0933227 42.2344 0.0643918 42.7493C0.222106 43.2643 0.649644 43.6511 1.17767 43.7567L5.39915 44.601L6.24348 48.8224C6.34973 49.3536 6.74055 49.7829 7.25959 49.9384C7.77609 50.0931 8.33918 49.952 8.72189 49.5647L16.116 42.0819C18.8777 43.303 21.8894 43.9452 25.0001 43.9452C28.0998 43.9452 31.1012 43.3071 33.8552 42.0942L41.2814 49.5676C41.664 49.9527 42.2263 50.0932 42.7427 49.9377C43.2608 49.7817 43.6507 49.3528 43.7568 48.8223L44.6011 44.6009L48.8226 43.7566C49.3514 43.6508 49.7793 43.263 49.9366 42.7471C50.0936 42.2313 49.9545 41.6707 49.5745 41.2881ZM8.57551 45.5445L8.08039 43.0689C7.96438 42.489 7.51115 42.0358 6.93127 41.9197L4.41536 41.4165L8.87599 36.8977C10.2294 38.3572 11.7393 39.6069 13.4124 40.6493L8.57551 45.5445ZM5.95715 21.9726C5.95715 11.4723 14.4998 2.92968 25.0001 2.92968C35.5004 2.92968 44.043 11.4723 44.043 21.9726C44.043 32.4729 35.5004 41.0155 25.0001 41.0155C14.4998 41.0155 5.95715 32.473 5.95715 21.9726ZM43.0688 41.9197C42.4889 42.0358 42.0357 42.489 41.9197 43.0689L41.4227 45.5536L36.5639 40.664C38.1995 39.6479 39.7183 38.4098 41.1052 36.9179L45.5749 41.4185L43.0688 41.9197Z" fill="#181818"/>
<path d="M25.0001 14.6484C27.4233 14.6484 29.3946 12.6771 29.3946 10.2539C29.3946 7.83076 27.4233 5.85938 25.0001 5.85938C22.577 5.85938 20.6056 7.83076 20.6056 10.2539C20.6056 12.6771 22.577 14.6484 25.0001 14.6484ZM25.0001 8.78906C25.8078 8.78906 26.465 9.44619 26.465 10.2539C26.465 11.0616 25.8078 11.7188 25.0001 11.7188C24.1924 11.7188 23.5353 11.0616 23.5353 10.2539C23.5353 9.44619 24.1924 8.78906 25.0001 8.78906Z" fill="#1C2B58"/>
<path d="M35.254 13.1836C32.8309 13.1836 30.8595 15.155 30.8595 17.5781C30.8595 20.0013 32.8309 21.9727 35.254 21.9727C37.6772 21.9727 39.6486 20.0013 39.6486 17.5781C39.6486 15.155 37.6772 13.1836 35.254 13.1836ZM35.254 19.043C34.4463 19.043 33.7892 18.3858 33.7892 17.5781C33.7892 16.7704 34.4463 16.1133 35.254 16.1133C36.0617 16.1133 36.7189 16.7704 36.7189 17.5781C36.7189 18.3858 36.0617 19.043 35.254 19.043Z" fill="#1C2B58"/>
<path d="M19.1408 17.5781C19.1408 15.155 17.1694 13.1836 14.7462 13.1836C12.3231 13.1836 10.3517 15.155 10.3517 17.5781C10.3517 20.0013 12.3231 21.9727 14.7462 21.9727C17.1694 21.9727 19.1408 20.0013 19.1408 17.5781ZM13.2814 17.5781C13.2814 16.7704 13.9385 16.1133 14.7462 16.1133C15.5539 16.1133 16.2111 16.7704 16.2111 17.5781C16.2111 18.3858 15.5539 19.043 14.7462 19.043C13.9385 19.043 13.2814 18.3858 13.2814 17.5781Z" fill="#1C2B58"/>
<path d="M32.9278 24.6222C31.6098 23.6249 30.7375 22.5393 30.3352 21.3954C29.4819 18.9694 27.5372 17.5781 25.0001 17.5781C22.463 17.5781 20.5184 18.9694 19.6651 21.3954C19.2627 22.5393 18.3905 23.6249 17.0725 24.6222C15.5942 25.7409 14.7463 27.4448 14.7463 29.2968C14.7463 32.5277 17.3749 35.1562 20.6057 35.1562C21.9299 35.1562 23.1796 34.725 24.2197 33.9091C24.6648 33.5601 25.3359 33.5601 25.7808 33.9091C26.8208 34.725 28.0706 35.1562 29.3948 35.1562C32.6256 35.1562 35.2541 32.5277 35.2541 29.2968C35.254 27.4448 34.4061 25.741 32.9278 24.6222ZM29.3947 32.2265C28.7325 32.2265 28.108 32.0113 27.5888 31.604C26.8388 31.0158 25.9195 30.7216 25.0001 30.7216C24.0808 30.7216 23.1615 31.0158 22.4115 31.604C21.8923 32.0112 21.2678 32.2265 20.6056 32.2265C18.9902 32.2265 17.6759 30.9123 17.6759 29.2968C17.6759 28.3707 18.1003 27.5183 18.8402 26.9584C20.6249 25.6081 21.8322 24.0634 22.4288 22.3674C22.875 21.0987 23.692 20.5078 25.0001 20.5078C26.3082 20.5078 27.1252 21.0987 27.5715 22.3674C28.1681 24.0634 29.3754 25.6081 31.1601 26.9584C31.9 27.5184 32.3245 28.3707 32.3245 29.2968C32.3244 30.9123 31.0101 32.2265 29.3947 32.2265Z" fill="#1C2B58"/>
</svg>
