<svg width="35" height="35" viewBox="0 0 35 35" fill="none" xmlns="http://www.w3.org/2000/svg">
<path d="M32.8809 18.457H33.9746C34.5409 18.457 35 17.9979 35 17.4316V13.3301C35 12.7638 34.5409 12.3047 33.9746 12.3047H22.1715C21.9363 11.7118 21.6197 11.1135 21.2426 10.5702C20.1831 9.04374 18.854 8.20312 17.5 8.20312C16.146 8.20312 14.8169 9.04374 13.7574 10.5702C13.3803 11.1135 13.0638 11.7117 12.8285 12.3047H1.02539C0.459102 12.3047 0 12.7638 0 13.3301V17.4316C0 17.9979 0.459102 18.457 1.02539 18.457H2.11914V32.9492H1.02539C0.459102 32.9492 0 33.4083 0 33.9746C0 34.5409 0.459102 35 1.02539 35H33.9746C34.5409 35 35 34.5409 35 33.9746C35 33.4083 34.5409 32.9492 33.9746 32.9492H32.8809V18.457ZM32.9492 14.3555V16.4062H21.945C22.3858 15.7892 22.627 15.0815 22.627 14.3555H32.9492ZM17.5 10.2539C18.7575 10.2539 20.023 12.1486 20.4362 13.5406C20.4472 13.5937 20.5762 13.9795 20.5762 14.3555C20.5762 15.4671 19.1675 16.4062 17.5 16.4062C15.8325 16.4062 14.4238 15.4671 14.4238 14.3555C14.4238 13.9794 14.5531 13.5918 14.5638 13.5406C14.977 12.1486 16.2425 10.2539 17.5 10.2539ZM2.05078 14.3555H12.373C12.373 15.0815 12.6142 15.7892 13.055 16.4062H2.05078V14.3555ZM16.4746 28.7109V32.9492H14.4238V28.7109H16.4746ZM18.5254 28.7109H20.5762V32.9492H18.5254V28.7109ZM22.627 28.7109H24.6777V32.9492H22.627V28.7109ZM10.4254 26.6602C10.9017 24.3228 12.9732 22.5586 15.4492 22.5586H19.5508C22.0268 22.5586 24.0982 24.3228 24.5746 26.6602H10.4254ZM10.3223 28.7109H12.373V32.9492H10.3223V28.7109ZM26.7285 32.9492V27.6855C26.7285 23.7277 23.5086 20.5078 19.5508 20.5078H15.4492C11.4914 20.5078 8.27148 23.7277 8.27148 27.6855V32.9492H4.16992V22.5586H7.24609C7.81238 22.5586 8.27148 22.0995 8.27148 21.5332C8.27148 20.9669 7.81238 20.5078 7.24609 20.5078H4.16992V18.457H30.8301V20.5078H27.7539C27.1876 20.5078 26.7285 20.9669 26.7285 21.5332C26.7285 22.0995 27.1876 22.5586 27.7539 22.5586H30.8301V32.9492H26.7285Z" fill="#181818"/>
<path d="M17.5 6.15234C19.1962 6.15234 20.5762 4.77237 20.5762 3.07617C20.5762 1.37997 19.1962 0 17.5 0C15.8038 0 14.4238 1.37997 14.4238 3.07617C14.4238 4.77237 15.8038 6.15234 17.5 6.15234ZM17.5 2.05078C18.0654 2.05078 18.5254 2.51077 18.5254 3.07617C18.5254 3.64157 18.0654 4.10156 17.5 4.10156C16.9346 4.10156 16.4746 3.64157 16.4746 3.07617C16.4746 2.51077 16.9346 2.05078 17.5 2.05078Z" fill="#1C2B58"/>
<path d="M11.3477 10.2539C13.0439 10.2539 14.4238 8.87394 14.4238 7.17773C14.4238 5.48153 13.0439 4.10156 11.3477 4.10156C9.65146 4.10156 8.27148 5.48153 8.27148 7.17773C8.27148 8.87394 9.65146 10.2539 11.3477 10.2539ZM11.3477 6.15234C11.9131 6.15234 12.373 6.61233 12.373 7.17773C12.373 7.74313 11.9131 8.20312 11.3477 8.20312C10.7823 8.20312 10.3223 7.74313 10.3223 7.17773C10.3223 6.61233 10.7823 6.15234 11.3477 6.15234Z" fill="#1C2B58"/>
<path d="M23.6523 10.2539C25.3485 10.2539 26.7285 8.87394 26.7285 7.17773C26.7285 5.48153 25.3485 4.10156 23.6523 4.10156C21.9561 4.10156 20.5762 5.48153 20.5762 7.17773C20.5762 8.87394 21.9561 10.2539 23.6523 10.2539ZM23.6523 6.15234C24.2177 6.15234 24.6777 6.61233 24.6777 7.17773C24.6777 7.74313 24.2177 8.20312 23.6523 8.20312C23.0869 8.20312 22.627 7.74313 22.627 7.17773C22.627 6.61233 23.0869 6.15234 23.6523 6.15234Z" fill="#1C2B58"/>
</svg>
