<svg width="41" height="40" viewBox="0 0 41 40" fill="none" xmlns="http://www.w3.org/2000/svg">
<path d="M37.9306 14.0459C36.8974 12.3729 35.6929 11.1183 34.3938 10.333L35.7608 6.23214C36.0133 5.47444 35.4487 4.68996 34.6492 4.68996H27.6191C26.8205 4.68996 26.2548 5.47374 26.5075 6.23214L27.8745 10.333C26.5754 11.1183 25.371 12.3729 24.3377 14.0459C22.6289 16.8129 21.6356 20.4015 21.7741 23.5133C21.5304 23.4797 21.2681 23.4565 20.9859 23.4451L13.4666 13.4193C13.4626 13.4139 13.4579 13.4092 13.4537 13.4039C13.4394 13.3855 13.424 13.3676 13.4084 13.3498C13.3963 13.3359 13.3842 13.3221 13.3715 13.3089C13.3667 13.304 13.3626 13.2986 13.3578 13.2938L12.5293 12.4652C10.4543 10.3901 7.39436 9.88735 4.84047 10.9542L3.19635 8.48507L5.05981 6.6784C5.52442 6.228 5.5359 5.48616 5.08543 5.02155C4.63487 4.55693 3.89319 4.54553 3.42858 4.99593L0.864916 7.48147C0.459198 7.87485 0.392021 8.5017 0.705253 8.9721L2.85945 12.2074C2.76696 12.2906 2.67604 12.3763 2.58715 12.4653C-0.153909 15.2064 -0.153909 19.6664 2.58715 22.4074C3.80391 23.6223 3.26548 23.1193 4.13362 23.7891C2.72244 24.2621 2.08785 25.0483 1.19924 25.4539C0.781804 25.6444 0.514033 26.061 0.514033 26.5198V38.8252C0.514033 39.4722 1.03864 39.9968 1.68572 39.9968H39.3361C39.9832 39.9968 40.5078 39.4722 40.5078 38.8252V26.5197C40.5078 26.2102 40.3855 25.9201 40.178 25.7055C41.1153 22.0819 39.9647 17.3396 37.9306 14.0459ZM29.2447 7.03326H33.0236L32.2084 9.47866C31.4931 9.34384 30.7866 9.34165 30.0598 9.47866L29.2447 7.03326ZM26.3314 15.2772C29.2437 10.5617 33.0167 10.549 35.9368 15.2772C37.5583 17.9028 38.4707 21.4744 38.0715 24.2906C37.3245 23.8351 36.3155 23.4369 34.6492 23.4369C32.3195 23.4369 31.2743 24.2151 30.4343 24.8405C29.7015 25.3861 29.172 25.7802 27.619 25.7802C26.066 25.7802 25.5364 25.386 24.8037 24.8405C24.6206 24.7042 24.4277 24.5606 24.2139 24.4194C23.8152 21.8869 24.5025 18.2387 26.3314 15.2772ZM7.66291 23.5069L6.02786 22.2806L9.16401 19.1445C9.16612 19.1424 9.1683 19.1403 9.17041 19.1381L12.4024 15.9061L18.2969 23.7654C17.4369 24.0496 16.8696 24.4716 16.3741 24.8406C15.6413 25.3862 15.1118 25.7803 13.5588 25.7803C12.0057 25.7803 11.4762 25.3861 10.7434 24.8406C10.0539 24.3272 9.22564 23.7113 7.66291 23.5069ZM10.8722 14.1222L8.51755 16.4769L6.17565 12.9597C7.78227 12.4666 9.60331 12.8534 10.8722 14.1222ZM4.17955 14.1901L6.8275 18.1669L4.24407 20.7504C2.43889 18.9451 2.41827 16.0224 4.17955 14.1901ZM38.1642 37.6535H2.85726V27.217C4.04278 26.4857 4.49661 25.7803 6.52856 25.7803C8.00763 25.7803 8.54059 26.122 9.3439 26.7201C10.1838 27.3455 11.2291 28.1237 13.5587 28.1237C15.8883 28.1237 16.9336 27.3455 17.7735 26.7201C18.5064 26.1745 19.0358 25.7803 20.5889 25.7803C22.1419 25.7803 22.6714 26.1746 23.4042 26.7201C24.2441 27.3455 25.2894 28.1237 27.619 28.1237C29.9486 28.1237 30.9939 27.3455 31.8338 26.7201C32.5667 26.1745 33.0961 25.7803 34.6492 25.7803C36.6539 25.7803 36.9636 26.4444 38.1424 27.198C38.1478 27.2016 38.1532 27.2053 38.1588 27.2088C38.1606 27.2099 38.1624 27.2111 38.1642 27.2124V37.6535H38.1642Z" fill="#181818"/>
<path d="M34.6491 30.5452C32.3195 30.5452 31.2742 31.3235 30.4343 31.9488C29.7014 32.4945 29.1719 32.8886 27.619 32.8886C26.9719 32.8886 26.4473 33.4132 26.4473 34.0603C26.4473 34.7074 26.9719 35.232 27.619 35.232C29.9486 35.232 30.9938 34.4538 31.8338 33.8284C32.5666 33.2828 33.0961 32.8886 34.6491 32.8886C35.2962 32.8886 35.8208 32.364 35.8208 31.7169C35.8208 31.0698 35.2962 30.5452 34.6491 30.5452Z" fill="#1C2B58"/>
<path d="M24.1039 30.5452C21.7743 30.5452 20.7291 31.3235 19.8891 31.9488C19.1563 32.4945 18.6267 32.8886 17.0738 32.8886C16.4267 32.8886 15.9021 33.4132 15.9021 34.0603C15.9021 34.7074 16.4267 35.232 17.0738 35.232C19.4034 35.232 20.4487 34.4538 21.2886 33.8284C22.0215 33.2828 22.551 32.8886 24.1039 32.8886C24.751 32.8886 25.2756 32.364 25.2756 31.7169C25.2756 31.0698 24.751 30.5452 24.1039 30.5452Z" fill="#1C2B58"/>
<path d="M13.5588 30.5452C11.2291 30.5452 10.1839 31.3235 9.34397 31.9488C8.61111 32.4945 8.08159 32.8886 6.52863 32.8886C5.88154 32.8886 5.35693 33.4132 5.35693 34.0603C5.35693 34.7074 5.88154 35.232 6.52863 35.232C8.85826 35.232 9.90349 34.4538 10.7434 33.8284C11.4763 33.2828 12.0058 32.8886 13.5588 32.8886C14.2059 32.8886 14.7305 32.364 14.7305 31.7169C14.7305 31.0698 14.2059 30.5452 13.5588 30.5452Z" fill="#1C2B58"/>
<path d="M4.18512 2.3465C6.12333 2.3465 7.7002 3.92336 7.7002 5.86157C7.7002 6.50866 8.2248 7.03326 8.87189 7.03326C9.51898 7.03326 10.0436 6.50866 10.0436 5.86157C10.0436 3.92336 11.6204 2.3465 13.5587 2.3465C14.2057 2.3465 14.7304 1.82189 14.7304 1.1748C14.7304 0.527718 14.2057 0.00311279 13.5587 0.00311279C11.6443 0.00311279 9.94164 0.925937 8.87189 2.35017C7.80213 0.925937 6.09943 0.00311279 4.18512 0.00311279C3.53803 0.00311279 3.01343 0.527718 3.01343 1.1748C3.01343 1.82189 3.53803 2.3465 4.18512 2.3465Z" fill="#1C2B58"/>
<path d="M12.387 5.86157C12.387 6.50866 12.9116 7.03326 13.5587 7.03326C15.4969 7.03326 17.0737 8.61012 17.0737 10.5483C17.0737 11.1954 17.5983 11.72 18.2454 11.72C18.8925 11.72 19.4171 11.1954 19.4171 10.5483C19.4171 8.61012 20.994 7.03326 22.9322 7.03326C23.5793 7.03326 24.1039 6.50866 24.1039 5.86157C24.1039 5.21449 23.5793 4.68988 22.9322 4.68988C21.0179 4.68988 19.3152 5.6127 18.2454 7.03693C17.1757 5.6127 15.473 4.68988 13.5587 4.68988C12.9116 4.68988 12.387 5.21441 12.387 5.86157Z" fill="#1C2B58"/>
</svg>
