<svg width="35" height="35" viewBox="0 0 35 35" fill="none" xmlns="http://www.w3.org/2000/svg">
<g clip-path="url(#clip0_1151_55)">
<path d="M34.4002 22.2729C34.0957 22.1339 33.8481 21.9496 33.5615 21.7362C32.8265 21.1889 31.9117 20.5078 29.8729 20.5078C29.4944 20.5078 29.1547 20.5314 28.8476 20.5732V16.3975C30.2863 16.3675 31.5662 16.2408 32.6131 15.7426C34.1968 14.9889 34.9999 13.4872 34.9999 11.2794C34.9999 9.17595 34.2002 6.44904 32.9129 4.16277C32.0375 2.60815 30.2121 0.00012207 27.8222 0.00012207C25.4322 0.00012207 23.6068 2.60815 22.7315 4.16277C22.1276 5.23526 21.631 6.40481 21.2739 7.56144C19.5367 6.17526 16.636 6.69486 15.0073 7.15013C12.4804 7.85648 9.9867 9.21922 8.49935 10.7066C6.93816 12.2678 6.4442 13.8974 7.03106 15.5501C7.41907 16.6428 8.23452 17.6374 9.23065 18.676L7.14932 20.7573C6.64798 20.6059 6.03678 20.5078 5.26364 20.5078C3.21485 20.5078 2.24163 21.1926 1.4596 21.7429C1.16121 21.9529 0.903501 22.1341 0.599645 22.2728C0.234335 22.4396 0 22.8041 0 23.2057V33.9745C0 34.5408 0.459099 34.9999 1.02538 34.9999H33.9744C34.5407 34.9999 34.9998 34.5408 34.9998 33.9745V23.2057C34.9999 22.8042 34.7655 22.4396 34.4002 22.2729ZM26.1845 21.7362C25.5432 22.2136 25.0798 22.5586 23.7207 22.5586C22.3616 22.5586 21.8982 22.2136 21.2569 21.7362C20.7021 21.3231 20.0446 20.834 18.8791 20.6189C20.1412 19.2579 21.2916 17.1958 21.9961 15.0431C22.2928 15.322 22.638 15.5554 23.0313 15.7426C24.0782 16.2408 25.3581 16.3675 26.7969 16.3975V21.3054C26.5707 21.4487 26.3717 21.5968 26.1845 21.7362ZM24.5185 5.16895C25.585 3.27479 26.8818 2.05089 27.8222 2.05089C28.7626 2.05089 30.0594 3.27479 31.1259 5.16895C32.2334 7.13591 32.9491 9.53442 32.9491 11.2794C32.9491 13.8154 31.8039 14.2791 28.8476 14.3456V11.7041L30.598 9.95367C30.9984 9.55322 30.9984 8.90402 30.598 8.50357C30.1976 8.10312 29.5483 8.10312 29.1479 8.50357L28.8475 8.80394V7.17788C28.8475 6.6116 28.3884 6.1525 27.8221 6.1525C27.2558 6.1525 26.7967 6.6116 26.7967 7.17788V11.2794V14.3457C23.8404 14.2792 22.6952 13.8155 22.6952 11.2794C22.6952 9.53442 23.4109 7.13598 24.5185 5.16895ZM8.96371 14.864C8.74065 14.2358 8.6833 13.4229 9.94951 12.1567C11.1834 10.9228 13.3854 9.73287 15.5594 9.12516C16.5297 8.85391 17.4331 8.71945 18.1895 8.71945C19.065 8.71945 19.7435 8.89964 20.1003 9.2564C20.7653 9.9214 20.8167 11.7038 20.2315 13.7973C19.6238 15.9713 18.4339 18.1734 17.2 19.4072C15.9338 20.6733 15.121 20.6161 14.4927 20.393C13.7576 20.132 12.9773 19.4856 12.1311 18.6756L13.9994 16.8073H16.4749C17.0412 16.8073 17.5003 16.3482 17.5003 15.7819C17.5003 15.2156 17.0412 14.7565 16.4749 14.7565H14.5998L14.5992 12.8823C14.5989 12.3161 14.1399 11.8573 13.5738 11.8573C13.5737 11.8573 13.5736 11.8573 13.5734 11.8573C13.0071 11.8575 12.5482 12.3167 12.5484 12.883L12.5492 15.3573L10.681 17.2255C9.87111 16.3793 9.2247 15.5991 8.96371 14.864ZM13.3228 22.1235C12.8807 22.3891 12.3683 22.5586 11.416 22.5586C10.1054 22.5586 9.62768 22.2378 9.02017 21.7867L10.6807 20.1261C11.5642 20.9733 12.4158 21.6895 13.3228 22.1235ZM32.9491 32.9491H2.05084V23.8158C2.2659 23.6832 2.45942 23.5471 2.63982 23.42C3.32382 22.9387 3.86413 22.5586 5.26371 22.5586C6.62282 22.5586 7.08623 22.9036 7.7275 23.381C8.4625 23.9283 9.37728 24.6094 11.416 24.6094C13.4548 24.6094 14.3695 23.9283 15.1045 23.381C15.7459 22.9035 16.2092 22.5586 17.5683 22.5586C18.9274 22.5586 19.3908 22.9036 20.0321 23.381C20.7671 23.9283 21.6819 24.6094 23.7206 24.6094C25.7594 24.6094 26.6741 23.9283 27.4091 23.381C28.0505 22.9035 28.5138 22.5586 29.8729 22.5586C31.2321 22.5586 31.6955 22.9036 32.3367 23.3811C32.5223 23.5192 32.7217 23.6676 32.9491 23.8117V32.9491Z" fill="#181818"/>
<path d="M29.873 26.7285C27.8343 26.7285 26.9196 27.4096 26.1845 27.9568C25.5432 28.4343 25.0798 28.7793 23.7207 28.7793C23.1544 28.7793 22.6953 29.2384 22.6953 29.8047C22.6953 30.371 23.1544 30.8301 23.7207 30.8301C25.7595 30.8301 26.6742 30.149 27.4092 29.6018C28.0506 29.1243 28.514 28.7793 29.873 28.7793C30.4393 28.7793 30.8984 28.3202 30.8984 27.7539C30.8984 27.1876 30.4393 26.7285 29.873 26.7285Z" fill="#1C2B58"/>
<path d="M20.6445 26.7285C18.6058 26.7285 17.6911 27.4096 16.956 27.9568C16.3146 28.4343 15.8512 28.7793 14.4922 28.7793C13.9259 28.7793 13.4668 29.2384 13.4668 29.8047C13.4668 30.371 13.9259 30.8301 14.4922 30.8301C16.5309 30.8301 17.4457 30.149 18.1807 29.6018C18.8221 29.1243 19.2855 28.7793 20.6445 28.7793C21.2108 28.7793 21.6699 28.3202 21.6699 27.7539C21.6699 27.1876 21.2108 26.7285 20.6445 26.7285Z" fill="#1C2B58"/>
<path d="M11.416 26.7285C9.37727 26.7285 8.46255 27.4096 7.72748 27.9568C7.08613 28.4343 6.62272 28.7793 5.26367 28.7793C4.69738 28.7793 4.23828 29.2384 4.23828 29.8047C4.23828 30.371 4.69738 30.8301 5.26367 30.8301C7.30242 30.8301 8.21714 30.149 8.95221 29.6018C9.59355 29.1243 10.057 28.7793 11.416 28.7793C11.9823 28.7793 12.4414 28.3202 12.4414 27.7539C12.4414 27.1876 11.9823 26.7285 11.416 26.7285Z" fill="#1C2B58"/>
<path d="M0.567056 3.99352C0.714234 4.06714 0.870709 4.102 1.02479 4.102C1.4009 4.102 1.76307 3.89426 1.94272 3.53496L2.96811 1.48418C3.22138 0.977637 3.01603 0.361719 2.50956 0.108447C2.00315 -0.144756 1.3871 0.0605274 1.13382 0.567002L0.108433 2.61778C-0.14477 3.12433 0.0605819 3.74024 0.567056 3.99352Z" fill="#1C2B58"/>
<path d="M0.567056 16.2981C0.714234 16.3717 0.870709 16.4066 1.02479 16.4066C1.4009 16.4066 1.76307 16.1988 1.94272 15.8395L2.96811 13.7887C3.22138 13.2822 3.01603 12.6663 2.50956 12.413C2.00315 12.1598 1.3871 12.3651 1.13382 12.8716L0.108433 14.9223C-0.14477 15.4289 0.0605819 16.0448 0.567056 16.2981Z" fill="#1C2B58"/>
<path d="M6.7194 3.99352C6.86658 4.06714 7.02305 4.102 7.17713 4.102C7.55325 4.102 7.91542 3.89426 8.09506 3.53496L9.12046 1.48418C9.37373 0.977637 9.16838 0.361719 8.6619 0.108447C8.15543 -0.144756 7.53944 0.0605274 7.28617 0.567002L6.26078 2.61778C6.00757 3.12433 6.21293 3.74024 6.7194 3.99352Z" fill="#1C2B58"/>
<path d="M2.61784 10.1459C2.76502 10.2195 2.92149 10.2543 3.07557 10.2543C3.45169 10.2543 3.81385 10.0466 3.9935 9.68731L5.01889 7.63652C5.27216 7.12998 5.06681 6.51406 4.56034 6.26079C4.05386 6.00759 3.43788 6.21287 3.18461 6.71935L2.15921 8.77013C1.90601 9.27667 2.11136 9.89259 2.61784 10.1459Z" fill="#1C2B58"/>
<path d="M12.8717 3.99352C13.0189 4.06714 13.1754 4.102 13.3295 4.102C13.7056 4.102 14.0678 3.89426 14.2474 3.53496L15.2728 1.48418C15.5261 0.977637 15.3207 0.361719 14.8142 0.108447C14.3078 -0.144756 13.6918 0.0605274 13.4385 0.567002L12.4131 2.61778C12.1599 3.12433 12.3653 3.74024 12.8717 3.99352Z" fill="#1C2B58"/>
<path d="M19.0241 3.99352C19.1713 4.06714 19.3277 4.102 19.4818 4.102C19.8579 4.102 20.2201 3.89426 20.3998 3.53496L21.4251 1.48418C21.6784 0.977637 21.4731 0.361719 20.9666 0.108447C20.4601 -0.144756 19.8441 0.0605274 19.5909 0.567002L18.5655 2.61778C18.3123 3.12433 18.5176 3.74024 19.0241 3.99352Z" fill="#1C2B58"/>
</g>
<defs>
<clipPath id="clip0_1151_55">
<rect width="35" height="35" fill="white"/>
</clipPath>
</defs>
</svg>
