<svg width="35" height="35" viewBox="0 0 35 35" fill="none" xmlns="http://www.w3.org/2000/svg">
<path d="M33.9746 2.05078H28.7793V1.02539C28.7793 0.459102 28.3202 0 27.7539 0C27.1876 0 26.7285 0.459102 26.7285 1.02539V2.05078H18.5254V1.02539C18.5254 0.459102 18.0663 0 17.5 0C16.9337 0 16.4746 0.459102 16.4746 1.02539V2.05078H8.27148V1.02539C8.27148 0.459102 7.81238 0 7.24609 0C6.6798 0 6.2207 0.459102 6.2207 1.02539V2.05078H1.02539C0.459102 2.05078 0 2.50988 0 3.07617V33.9746C0 34.5409 0.459102 35 1.02539 35H33.9746C34.5409 35 35 34.5409 35 33.9746C35 33.1639 35 3.3868 35 3.07617C35 2.50988 34.5409 2.05078 33.9746 2.05078ZM6.2207 4.10156V5.12695C6.2207 5.69324 6.6798 6.15234 7.24609 6.15234C7.81238 6.15234 8.27148 5.69324 8.27148 5.12695V4.10156H16.4746V5.12695C16.4746 5.69324 16.9337 6.15234 17.5 6.15234C18.0663 6.15234 18.5254 5.69324 18.5254 5.12695V4.10156H26.7285V5.12695C26.7285 5.69324 27.1876 6.15234 27.7539 6.15234C28.3202 6.15234 28.7793 5.69324 28.7793 5.12695V4.10156H32.9492V8.20312H2.05078V4.10156H6.2207ZM32.9492 32.9492H2.05078V10.2539H32.9492V32.9492Z" fill="#181818"/>
<path d="M13.3984 18.5254C15.0946 18.5254 16.4746 17.1454 16.4746 15.4492C16.4746 13.753 15.0946 12.373 13.3984 12.373C11.7022 12.373 10.3223 13.753 10.3223 15.4492C10.3223 17.1454 11.7022 18.5254 13.3984 18.5254ZM13.3984 14.4238C13.9638 14.4238 14.4238 14.8838 14.4238 15.4492C14.4238 16.0146 13.9638 16.4746 13.3984 16.4746C12.833 16.4746 12.373 16.0146 12.373 15.4492C12.373 14.8838 12.833 14.4238 13.3984 14.4238Z" fill="#1C2B58"/>
<path d="M21.6016 18.5254C23.2978 18.5254 24.6777 17.1454 24.6777 15.4492C24.6777 13.753 23.2978 12.373 21.6016 12.373C19.9054 12.373 18.5254 13.753 18.5254 15.4492C18.5254 17.1454 19.9054 18.5254 21.6016 18.5254ZM21.6016 14.4238C22.167 14.4238 22.627 14.8838 22.627 15.4492C22.627 16.0146 22.167 16.4746 21.6016 16.4746C21.0362 16.4746 20.5762 16.0146 20.5762 15.4492C20.5762 14.8838 21.0362 14.4238 21.6016 14.4238Z" fill="#1C2B58"/>
<path d="M23.6523 20.5762C23.6523 22.2724 25.0323 23.6523 26.7285 23.6523C28.4247 23.6523 29.8047 22.2724 29.8047 20.5762C29.8047 18.88 28.4247 17.5 26.7285 17.5C25.0323 17.5 23.6523 18.88 23.6523 20.5762ZM26.7285 19.5508C27.2939 19.5508 27.7539 20.0108 27.7539 20.5762C27.7539 21.1416 27.2939 21.6016 26.7285 21.6016C26.1631 21.6016 25.7031 21.1416 25.7031 20.5762C25.7031 20.0108 26.1631 19.5508 26.7285 19.5508Z" fill="#1C2B58"/>
<path d="M8.27148 23.6523C9.96769 23.6523 11.3477 22.2724 11.3477 20.5762C11.3477 18.88 9.96769 17.5 8.27148 17.5C6.57528 17.5 5.19531 18.88 5.19531 20.5762C5.19531 22.2724 6.57528 23.6523 8.27148 23.6523ZM8.27148 19.5508C8.83688 19.5508 9.29688 20.0108 9.29688 20.5762C9.29688 21.1416 8.83688 21.6016 8.27148 21.6016C7.70608 21.6016 7.24609 21.1416 7.24609 20.5762C7.24609 20.0108 7.70608 19.5508 8.27148 19.5508Z" fill="#1C2B58"/>
<path d="M13.7655 21.1975C13.4838 21.9983 12.8732 22.7582 11.9507 23.4563C10.9158 24.2393 10.3223 25.432 10.3223 26.7285C10.3223 28.9901 12.1622 30.8301 14.4238 30.8301C15.3508 30.8301 16.2256 30.5282 16.9536 29.9571C17.2651 29.7128 17.735 29.7128 18.0464 29.9571C18.7744 30.5282 19.6492 30.8301 20.5762 30.8301C22.8378 30.8301 24.6777 28.9901 24.6777 26.7285C24.6777 25.432 24.0842 24.2393 23.0493 23.4563C22.1268 22.7582 21.5163 21.9982 21.2345 21.1975C20.6373 19.4993 19.276 18.5254 17.5 18.5254C15.724 18.5254 14.3628 19.4993 13.7655 21.1975ZM17.5 20.5762C18.4156 20.5762 18.9876 20.9898 19.2999 21.8779C19.7176 23.0651 20.5628 24.1464 21.8119 25.0916C22.3299 25.4836 22.627 26.0802 22.627 26.7285C22.627 27.8593 21.707 28.7793 20.5762 28.7793C20.1126 28.7793 19.6755 28.6286 19.3121 28.3435C18.7871 27.9318 18.1435 27.7259 17.5 27.7259C16.8565 27.7259 16.2129 27.9318 15.6879 28.3435C15.3245 28.6286 14.8874 28.7793 14.4238 28.7793C13.293 28.7793 12.373 27.8593 12.373 26.7285C12.373 26.0802 12.6701 25.4836 13.188 25.0917C14.4373 24.1464 15.2824 23.0651 15.7 21.8779C16.0124 20.9898 16.5844 20.5762 17.5 20.5762Z" fill="#181818"/>
</svg>
