<svg width="35" height="35" viewBox="0 0 35 35" fill="none" xmlns="http://www.w3.org/2000/svg">
<g clip-path="url(#clip0_1151_20)">
<path d="M25.4656 2.08176C22.3638 2.08176 19.41 3.43391 17.4524 5.68369C15.4926 3.42749 12.5396 2.07117 9.44269 2.07117C4.25544 2.07117 0 5.82068 0 12.6774C0 16.0749 1.3771 19.598 3.98234 22.866C6.8775 26.4975 11.2506 29.8445 16.9801 32.8139C17.1281 32.8906 17.29 32.9289 17.4519 32.9289C17.6139 32.9289 17.7758 32.8905 17.9238 32.8139C23.6625 29.8397 28.0508 26.4939 30.9667 22.8695C33.6053 19.5899 35 16.0655 35 12.6774C35 5.35802 30.2114 2.08176 25.4656 2.08176ZM29.3689 21.584C26.7116 24.8869 22.7041 27.9677 17.452 30.746C12.2124 27.9736 8.22199 24.894 5.58599 21.5876C3.24017 18.6452 2.05078 15.6473 2.05078 12.6774C2.05078 6.36256 6.03271 4.12195 9.44269 4.12195C12.3441 4.12195 15.082 5.58586 16.5879 7.94242C16.7763 8.23725 17.102 8.41567 17.4519 8.41567C17.8019 8.41567 18.1275 8.23725 18.316 7.94242C19.8177 5.59243 22.5573 4.13254 25.4656 4.13254C28.9178 4.13254 32.9492 6.37042 32.9492 12.6775C32.9492 15.5928 31.7112 18.6727 29.3689 21.584Z" fill="#181818"/>
<path d="M13.3984 17.548C13.9647 17.548 14.4238 17.0889 14.4238 16.5226C14.4238 15.9563 13.9647 15.4972 13.3984 15.4972C12.8321 15.4972 12.373 15.9563 12.373 16.5226C12.373 17.0889 12.8321 17.548 13.3984 17.548Z" fill="#1C2B58"/>
<path d="M21.6016 17.548C22.1679 17.548 22.627 17.0889 22.627 16.5226C22.627 15.9563 22.1679 15.4972 21.6016 15.4972C21.0353 15.4972 20.5762 15.9563 20.5762 16.5226C20.5762 17.0889 21.0353 17.548 21.6016 17.548Z" fill="#1C2B58"/>
<path d="M22.627 8.31946C21.0906 8.31946 19.7142 9.1732 19.0125 10.481C18.5202 10.4086 18.0151 10.3702 17.5 10.3702C16.9849 10.3702 16.4798 10.4086 15.9875 10.481C15.2858 9.1732 13.9094 8.31946 12.373 8.31946C10.1114 8.31946 8.27148 10.1594 8.27148 12.421C8.27148 13.38 8.59852 14.2855 9.18921 15.0088C8.60139 16.0873 8.27148 17.2968 8.27148 18.5734C8.27148 23.0966 12.4114 26.7765 17.5 26.7765C22.5886 26.7765 26.7285 23.0966 26.7285 18.5734C26.7285 17.2968 26.3986 16.0873 25.8108 15.0088C26.4015 14.2855 26.7285 13.38 26.7285 12.421C26.7285 10.1594 24.8886 8.31946 22.627 8.31946ZM22.627 10.3702C23.7578 10.3702 24.6777 11.2902 24.6777 12.421C24.6777 12.7088 24.6183 12.9868 24.5072 13.2415C23.5903 12.2907 22.4334 11.528 21.1207 11.0283C21.4996 10.6194 22.0399 10.3702 22.627 10.3702ZM10.3223 12.421C10.3223 11.2902 11.2422 10.3702 12.373 10.3702C12.9601 10.3702 13.5004 10.6194 13.8793 11.0284C12.5666 11.528 11.4097 12.2907 10.4928 13.2415C10.3817 12.9868 10.3223 12.7088 10.3223 12.421ZM17.5 21.6495C16.9346 21.6495 16.4746 21.1895 16.4746 20.6241C16.4746 20.0587 16.9346 19.5988 17.5 19.5988C18.0654 19.5988 18.5254 20.0587 18.5254 20.6241C18.5254 21.1895 18.0654 21.6495 17.5 21.6495ZM18.5254 24.6627V23.524C19.7189 23.1007 20.5762 21.9609 20.5762 20.6241C20.5762 18.9279 19.1962 17.548 17.5 17.548C15.8038 17.548 14.4238 18.9279 14.4238 20.6241C14.4238 21.9609 15.2811 23.1007 16.4746 23.524V24.6627C13.0009 24.2349 10.3223 21.6674 10.3223 18.5734C10.3223 15.181 13.5422 12.421 17.5 12.421C21.4578 12.421 24.6777 15.181 24.6777 18.5734C24.6777 21.6674 21.9991 24.2349 18.5254 24.6627Z" fill="#1C2B58"/>
</g>
<defs>
<clipPath id="clip0_1151_20">
<rect width="35" height="35" fill="white"/>
</clipPath>
</defs>
</svg>
