<svg width="35" height="35" viewBox="0 0 35 35" fill="none" xmlns="http://www.w3.org/2000/svg">
<g clip-path="url(#clip0_1151_45)">
<path d="M34.9267 20.1954L30.8251 9.94154C30.6695 9.55224 30.2924 9.29698 29.8731 9.29698H24.4529L22.5963 1.87056C22.459 1.32115 21.902 0.987148 21.3529 1.12448L13.1497 3.17526C12.8504 3.25032 12.6086 3.4569 12.4813 3.71147L10.7139 7.2462H7.17777C6.78935 7.2462 6.43436 7.46563 6.26059 7.81304L0.108244 20.1177C-0.0506915 20.4356 -0.03367 20.8131 0.153156 21.1154C0.339982 21.4176 0.670021 21.6017 1.02542 21.6017H33.9746C34.3149 21.6017 34.633 21.4329 34.8237 21.1511C35.0145 20.8694 35.053 20.5113 34.9267 20.1954ZM28.493 19.5509L26.6759 14.0997C26.4968 13.5625 25.916 13.2721 25.3789 13.4512C24.8416 13.6303 24.5513 14.211 24.7303 14.7482L26.3312 19.551H13.0068L14.3156 16.9333C14.5689 16.4268 14.3636 15.8109 13.8571 15.5576C13.3505 15.3043 12.7346 15.5097 12.4814 16.0162L10.714 19.5509H2.6845L7.81146 9.29698H9.68854L8.37973 11.9146C8.12646 12.4211 8.33181 13.0371 8.83828 13.2903C9.34578 13.5441 9.96122 13.3372 10.214 12.8318L13.6794 5.90109L16.0499 8.27159L14.7242 9.59728C14.3237 9.99773 14.3237 10.6469 14.7242 11.0474C15.1245 11.4478 15.7738 11.4478 16.1743 11.0474L18.225 8.99661C18.6255 8.59616 18.6255 7.94695 18.225 7.5465L15.4041 4.72552L20.8555 3.36264L22.3391 9.29691H21.6016C21.2132 9.29691 20.8581 9.51635 20.6845 9.86375L18.6337 13.9653C18.3804 14.4719 18.5858 15.0878 19.0923 15.341C19.5987 15.5943 20.2146 15.389 20.4679 14.8825L22.2353 11.3478H29.1788L32.4601 19.5509H28.493Z" fill="#181818"/>
<path d="M18.3437 26.1459C18.1522 25.8687 17.8369 25.7032 17.5 25.7032C17.1631 25.7032 16.8478 25.8687 16.6563 26.1459C16.6344 26.1775 16.1146 26.9318 15.5876 27.8402C14.5445 29.6384 14.4238 30.4079 14.4238 30.8302C14.4238 32.5264 15.8038 33.9064 17.5 33.9064C19.1962 33.9064 20.5762 32.5264 20.5762 30.8302C20.5762 30.4079 20.4555 29.6384 19.4124 27.8402C18.8854 26.9318 18.3656 26.1775 18.3437 26.1459ZM17.5 31.8556C16.9346 31.8556 16.4746 31.3956 16.4746 30.8314C16.4829 30.5179 16.9095 29.6243 17.5002 28.629C18.0904 29.6232 18.5166 30.5164 18.5254 30.831C18.525 31.396 18.0651 31.8556 17.5 31.8556Z" fill="#1C2B58"/>
<path d="M28.5976 24.0951C28.4061 23.818 28.0908 23.6525 27.7539 23.6525C27.417 23.6525 27.1017 23.8179 26.9102 24.0951C26.8883 24.1267 26.3685 24.881 25.8416 25.7894C24.7984 27.5876 24.6777 28.3571 24.6777 28.7794C24.6777 30.4756 26.0577 31.8556 27.7539 31.8556C29.4501 31.8556 30.8301 30.4756 30.8301 28.7794C30.8301 28.3571 30.7094 27.5876 29.6663 25.7894C29.1393 24.881 28.6195 24.1267 28.5976 24.0951ZM27.7539 29.8048C27.1885 29.8048 26.7285 29.3448 26.7285 28.7806C26.7369 28.4671 27.1634 27.5735 27.7541 26.5782C28.3443 27.5724 28.7705 28.4656 28.7793 28.7802C28.7788 29.3452 28.319 29.8048 27.7539 29.8048Z" fill="#1C2B58"/>
<path d="M8.08979 24.0951C7.89831 23.818 7.58297 23.6525 7.24609 23.6525C6.90922 23.6525 6.59388 23.8179 6.4024 24.0951C6.38053 24.1267 5.86065 24.881 5.33374 25.7894C4.29058 27.5876 4.16992 28.3571 4.16992 28.7794C4.16992 30.4756 5.54989 31.8556 7.24609 31.8556C8.9423 31.8556 10.3223 30.4756 10.3223 28.7794C10.3223 28.3571 10.2016 27.5876 9.15845 25.7894C8.63153 24.881 8.11166 24.1267 8.08979 24.0951ZM7.24609 29.8048C6.68069 29.8048 6.2207 29.3448 6.2207 28.7806C6.22904 28.4671 6.65561 27.5735 7.2463 26.5782C7.83645 27.5724 8.26273 28.4656 8.27148 28.7802C8.27107 29.3452 7.81122 29.8048 7.24609 29.8048Z" fill="#1C2B58"/>
</g>
<defs>
<clipPath id="clip0_1151_45">
<rect width="35" height="35" fill="white"/>
</clipPath>
</defs>
</svg>
