<svg width="35" height="35" viewBox="0 0 35 35" fill="none" xmlns="http://www.w3.org/2000/svg">
<path d="M33.9746 16.4746H32.9146C32.4088 8.79368 26.2162 2.59185 18.5254 2.08544V1.02539C18.5254 0.459102 18.0663 0 17.5 0C16.9337 0 16.4746 0.459102 16.4746 1.02539V2.08544C8.79402 2.59116 2.59185 8.78336 2.08544 16.4746H1.02539C0.459102 16.4746 0 16.9337 0 17.5C0 18.0663 0.459102 18.5254 1.02539 18.5254H2.08544C2.59116 26.206 8.78336 32.4082 16.4746 32.9146V33.9746C16.4746 34.5409 16.9337 35 17.5 35C18.0663 35 18.5254 34.5409 18.5254 33.9746V32.9146C26.2058 32.4088 32.4082 26.2166 32.9146 18.5254H33.9746C34.5409 18.5254 35 18.0663 35 17.5C35 16.9337 34.5409 16.4746 33.9746 16.4746ZM18.5254 30.8595V29.873C18.5254 29.3068 18.0663 28.8477 17.5 28.8477C16.9337 28.8477 16.4746 29.3068 16.4746 29.873V30.8595C9.9024 30.3598 4.64017 25.0976 4.14046 18.5254H5.12695C5.69324 18.5254 6.15234 18.0663 6.15234 17.5C6.15234 16.9337 5.69324 16.4746 5.12695 16.4746H4.14046C4.64017 9.9024 9.9024 4.64017 16.4746 4.14046V5.12695C16.4746 5.69324 16.9337 6.15234 17.5 6.15234C18.0663 6.15234 18.5254 5.69324 18.5254 5.12695V4.14046C25.0977 4.64017 30.3598 9.9024 30.8595 16.4746H29.873C29.3068 16.4746 28.8477 16.9337 28.8477 17.5C28.8477 18.0663 29.3068 18.5254 29.873 18.5254H30.8595C30.3598 25.0976 25.0977 30.3598 18.5254 30.8595Z" fill="#181818"/>
<path d="M13.3984 17.5C13.9647 17.5 14.4238 17.0409 14.4238 16.4746C14.4238 15.9083 13.9647 15.4492 13.3984 15.4492C12.8321 15.4492 12.373 15.9083 12.373 16.4746C12.373 17.0409 12.8321 17.5 13.3984 17.5Z" fill="#1C2B58"/>
<path d="M21.6016 17.5C22.1679 17.5 22.627 17.0409 22.627 16.4746C22.627 15.9083 22.1679 15.4492 21.6016 15.4492C21.0353 15.4492 20.5762 15.9083 20.5762 16.4746C20.5762 17.0409 21.0353 17.5 21.6016 17.5Z" fill="#1C2B58"/>
<path d="M22.627 8.27148C21.0906 8.27148 19.7142 9.12522 19.0125 10.4331C18.5202 10.3606 18.0151 10.3223 17.5 10.3223C16.9849 10.3223 16.4798 10.3606 15.9875 10.4331C15.2858 9.12522 13.9094 8.27148 12.373 8.27148C10.1114 8.27148 8.27148 10.1114 8.27148 12.373C8.27148 13.332 8.59852 14.2375 9.18921 14.9609C8.60139 16.0394 8.27148 17.2488 8.27148 18.5254C8.27148 23.0486 12.4114 26.7285 17.5 26.7285C22.5886 26.7285 26.7285 23.0486 26.7285 18.5254C26.7285 17.2487 26.3986 16.0394 25.8107 14.9609C26.4014 14.2375 26.7285 13.332 26.7285 12.373C26.7285 10.1114 24.8886 8.27148 22.627 8.27148ZM22.627 10.3223C23.7578 10.3223 24.6777 11.2422 24.6777 12.373C24.6777 12.6608 24.6183 12.9388 24.5072 13.1935C23.5903 12.2428 22.4335 11.48 21.1207 10.9804C21.4996 10.5714 22.0399 10.3223 22.627 10.3223ZM10.3223 12.373C10.3223 11.2422 11.2422 10.3223 12.373 10.3223C12.9601 10.3223 13.5004 10.5714 13.8793 10.9804C12.5666 11.4801 11.4097 12.2428 10.4928 13.1936C10.3817 12.9388 10.3223 12.6608 10.3223 12.373ZM17.5 21.6016C16.9346 21.6016 16.4746 21.1416 16.4746 20.5762C16.4746 20.0108 16.9346 19.5508 17.5 19.5508C18.0654 19.5508 18.5254 20.0108 18.5254 20.5762C18.5254 21.1416 18.0654 21.6016 17.5 21.6016ZM18.5254 24.6147V23.476C19.7189 23.0527 20.5762 21.9129 20.5762 20.5762C20.5762 18.88 19.1962 17.5 17.5 17.5C15.8038 17.5 14.4238 18.88 14.4238 20.5762C14.4238 21.9129 15.2811 23.0527 16.4746 23.476V24.6147C13.0009 24.1869 10.3223 21.6195 10.3223 18.5254C10.3223 15.133 13.5422 12.373 17.5 12.373C21.4578 12.373 24.6777 15.133 24.6777 18.5254C24.6777 21.6194 21.9992 24.1869 18.5254 24.6147Z" fill="#1C2B58"/>
</svg>
