<svg width="36" height="40" viewBox="0 0 36 40" fill="none" xmlns="http://www.w3.org/2000/svg">
<path d="M17.9999 40C17.8916 40 17.7832 39.985 17.678 39.9549C15.1678 39.2378 12.8107 38.1234 10.6724 36.6429C6.57044 33.8028 3.35744 29.6595 1.68172 24.7236C0.845619 22.2609 0.421631 19.6883 0.421631 17.0778V3.51528C0.421631 3.05114 0.695618 2.63066 1.12015 2.44324C1.54477 2.25574 2.04001 2.33652 2.38306 2.64934C2.40103 2.66527 4.718 4.68803 8.72718 4.68803C12.728 4.68803 17.1314 0.382204 17.1755 0.338766C17.6326 -0.112958 18.3688 -0.112958 18.825 0.339469C18.8684 0.382282 23.2718 4.68803 27.2726 4.68803C31.2818 4.68803 33.5988 2.66535 33.6217 2.64488C33.9645 2.33215 34.4574 2.25355 34.8821 2.44105C35.3067 2.62855 35.5782 3.05114 35.5782 3.51536V17.0778C35.5782 19.6884 35.1542 22.2609 34.3181 24.7236C32.7142 29.448 29.613 33.6757 25.3274 36.6429C23.1891 38.1234 20.8321 39.2378 18.3219 39.9549C18.2167 39.985 18.1082 40 17.9999 40ZM2.7654 5.65593V17.0777C2.7654 26.4914 9.01328 34.8846 17.9999 37.6066C26.9866 34.8847 33.2345 26.4915 33.2345 17.0777V5.65601C31.8849 6.33531 29.8682 7.0318 27.2726 7.0318C23.4384 7.0318 19.6339 4.16185 17.9999 2.75559C16.3659 4.16185 12.5614 7.0318 8.72726 7.0318C6.13169 7.0318 4.11495 6.33531 2.7654 5.65593Z" fill="#181818"/>
<path d="M18 16.5623C16.0615 16.5623 14.4844 14.9852 14.4844 13.0466C14.4844 12.1911 14.797 10.8718 15.2623 9.7637C15.9801 8.054 16.9013 7.18719 18 7.18719C19.0988 7.18719 20.0199 8.05408 20.7378 9.7637C21.2031 10.8718 21.5157 12.191 21.5157 13.0466C21.5157 14.9852 19.9386 16.5623 18 16.5623ZM18 9.64488C17.8345 9.84246 17.572 10.2517 17.3021 10.9779C16.991 11.8151 16.8282 12.6524 16.8282 13.0466C16.8282 13.6928 17.3539 14.2185 18 14.2185C18.6462 14.2185 19.1719 13.6928 19.1719 13.0466C19.1719 12.6523 19.0091 11.8151 18.698 10.9779C18.4281 10.2517 18.1656 9.84246 18 9.64488Z" fill="#1C2B58"/>
<path d="M23.914 21.3783C22.5402 20.0046 22.5398 17.7806 23.9141 16.4065C24.5189 15.8016 25.6729 15.0897 26.7854 14.6352C28.5022 13.9339 29.7662 13.9723 30.5433 14.7493C31.3202 15.5262 31.3586 16.7905 30.6573 18.5071C30.2028 19.6196 29.4909 20.7735 28.8859 21.3785C27.512 22.7523 25.288 22.7525 23.914 21.3783ZM28.8054 16.487C28.5486 16.5096 28.0737 16.6134 27.3693 16.936C26.5572 17.3081 25.8501 17.7849 25.5714 18.0637C25.5713 18.0637 25.5713 18.0637 25.5713 18.0637C25.1143 18.5206 25.1143 19.2641 25.5713 19.721C26.0292 20.1789 26.7705 20.179 27.2286 19.721C27.5073 19.4421 27.9843 18.735 28.3563 17.923C28.679 17.2188 28.7827 16.7438 28.8054 16.487ZM24.7427 17.2351H24.7435H24.7427Z" fill="#1C2B58"/>
<path d="M7.22401 21.3051C6.619 20.7001 5.9072 19.5462 5.45266 18.4337C4.75133 16.7172 4.78976 15.4528 5.56672 14.6759C6.34353 13.899 7.60807 13.8606 9.3245 14.5619C10.437 15.0165 11.591 15.7283 12.1959 16.3333C13.5698 17.7071 13.57 19.9311 12.1959 21.3051C10.8221 22.6791 8.59808 22.6792 7.22401 21.3051ZM7.30448 16.4138C7.32713 16.6706 7.43088 17.1455 7.75354 17.8499C8.12558 18.6619 8.60246 19.369 8.88129 19.6479C9.33911 20.1057 10.0805 20.106 10.5385 19.6479C10.9955 19.1909 10.9955 18.4475 10.5386 17.9905C10.2598 17.7117 9.5527 17.2349 8.74058 16.8628C8.03628 16.5402 7.56128 16.4364 7.30448 16.4138Z" fill="#1C2B58"/>
<path d="M21.5155 32.9687C20.4561 32.9687 19.4564 32.6237 18.6242 31.971C18.2681 31.6917 17.7313 31.6918 17.3755 31.971C16.5433 32.6237 15.5436 32.9687 14.4842 32.9687C11.8995 32.9687 9.79663 30.8659 9.79663 28.2812C9.79663 26.7994 10.475 25.4364 11.6577 24.5414C12.712 23.7436 13.4098 22.8751 13.7317 21.9598C14.4143 20.0191 15.97 18.9061 17.9998 18.9061C20.0297 18.9061 21.5853 20.0191 22.2679 21.9599C22.5899 22.875 23.2877 23.7436 24.342 24.5414C25.5248 25.4364 26.203 26.7994 26.203 28.2812C26.203 30.8659 24.1002 32.9687 21.5155 32.9687ZM16.6522 31.049H16.6529H16.6522ZM17.9998 29.4209C18.7353 29.4209 19.4708 29.6562 20.0708 30.1269C20.4861 30.4527 20.9857 30.6249 21.5155 30.6249C22.8079 30.6249 23.8593 29.5735 23.8593 28.2812C23.8593 27.5402 23.5197 26.8583 22.9278 26.4104C21.5002 25.3301 20.5342 24.0944 20.0569 22.7377C19.6999 21.7226 19.0463 21.2499 17.9998 21.2499C16.9534 21.2499 16.2997 21.7227 15.9428 22.7376C15.4654 24.0945 14.4995 25.3302 13.0719 26.4104C12.4799 26.8584 12.1404 27.5402 12.1404 28.2812C12.1404 29.5735 13.1918 30.6249 14.4842 30.6249C15.0139 30.6249 15.5136 30.4527 15.9289 30.1269C16.5289 29.6563 17.2644 29.4209 17.9998 29.4209Z" fill="#1C2B58"/>
</svg>
