<svg width="40" height="30" viewBox="0 0 40 30" fill="none" xmlns="http://www.w3.org/2000/svg">
<path d="M8.35664 18.6089C8.4372 19.4798 8.37558 21.8474 6.10752 25.1397C5.93595 25.3881 5.96708 25.7232 6.18014 25.9362C7.10483 26.8608 7.67733 27.4443 8.07889 27.8527C8.60689 28.391 8.84795 28.6363 9.20076 28.9562C9.43633 29.168 9.79276 29.1717 10.0308 28.9641C13.9841 25.5242 18.375 18.416 17.7396 9.70753C17.3673 4.59404 13.6374 0.882473 8.87114 0.882473C3.97983 0.882473 0.000328064 4.86135 0.000328064 9.75272C0.000328064 14.4713 3.70389 18.341 8.35664 18.6089ZM8.87114 2.13247C12.9642 2.13247 16.1691 5.35635 16.4932 9.79785C16.4932 9.79785 16.4932 9.79785 16.4932 9.79847C17.208 19.5928 11.3858 25.9545 9.62677 27.639C9.45527 27.47 9.25933 27.271 8.97064 26.9768C8.62277 26.6228 8.14664 26.1382 7.42645 25.4155C10.1798 21.1736 9.66033 18.1512 9.4327 17.7178C9.32464 17.5121 9.10308 17.3735 8.87114 17.3735C4.66889 17.3735 1.25033 13.955 1.25033 9.75272C1.25033 5.55103 4.66889 2.13247 8.87114 2.13247Z" fill="#1C2B58"/>
<path d="M30.5539 18.6088C30.6351 19.4773 30.5752 21.8431 28.3047 25.1396C28.1338 25.388 28.1644 25.7231 28.3774 25.9361C29.3002 26.8589 29.8721 27.4418 30.2731 27.8501C30.8029 28.3897 31.0446 28.6357 31.3974 28.9561C31.633 29.1679 31.9894 29.1709 32.2274 28.9646C36.1807 25.5247 40.5722 18.4178 39.9381 9.70745V9.70682C39.5645 4.59395 35.8341 0.882387 31.0678 0.882387C26.1764 0.882387 22.1969 4.86126 22.1969 9.75263C22.1969 14.4718 25.9006 18.3421 30.5539 18.6088ZM31.0678 2.13239C35.1602 2.13239 38.367 5.35626 38.6917 9.79838V9.79776C39.4046 19.5945 33.5824 25.955 31.8234 27.6389C31.6513 27.4699 31.4547 27.2697 31.1654 26.9749C30.8182 26.6209 30.3427 26.1369 29.6237 25.4154C32.377 21.1729 31.8576 18.1511 31.6299 17.7183C31.5219 17.5126 31.2997 17.3734 31.0678 17.3734C26.8655 17.3734 23.4469 13.9549 23.4469 9.75263C23.4469 5.55095 26.8655 2.13239 31.0678 2.13239Z" fill="#1C2B58"/>
</svg>
